<?xml version="1.0" encoding="utf-8"?>
<!-- Generator: Adobe Illustrator 21.0.0, SVG Export Plug-In . SVG Version: 6.00 Build 0)  -->
<svg version="1.1" id="Layer_1" xmlns="http://www.w3.org/2000/svg" xmlns:xlink="http://www.w3.org/1999/xlink" x="0px" y="0px"
	 viewBox="0 0 2780 751" style="enable-background:new 0 0 2780 751;" xml:space="preserve">
<style type="text/css">
	.st0{fill:#333333;}
	.st1{fill:none;stroke:#FFFF00;stroke-width:10;stroke-miterlimit:10;}
	.st2{fill:none;stroke:#FFFF00;stroke-width:15.9919;stroke-miterlimit:10;}
	.st3{fill:#FCC900;}
	.st4{fill:#99CCCC;}
	.st5{fill:#CCCCCC;}
	.st6{fill:#E5E5E5;}
	.st7{fill:url(#SVGID_1_);}
	.st8{fill:url(#SVGID_2_);}
	.st9{fill:url(#SVGID_3_);}
	.st10{fill:url(#SVGID_4_);}
	.st11{fill:url(#SVGID_5_);}
	.st12{fill:#4D4D4D;}
	.st13{fill:url(#SVGID_6_);}
	.st14{fill:url(#SVGID_7_);}
	.st15{fill:url(#SVGID_8_);}
	.st16{fill:url(#SVGID_9_);}
	.st17{fill:url(#SVGID_10_);}
	.st18{fill:url(#SVGID_11_);}
	.st19{fill:url(#SVGID_12_);}
</style>
<circle class="st3" cx="375.8" cy="167.5" r="71.5"/>
<linearGradient id="SVGID_1_" gradientUnits="userSpaceOnUse" x1="-7741.3198" y1="-3662.2051" x2="-7551.2183" y2="-3703.0803" gradientTransform="matrix(-0.5951 0.8036 -0.8036 -0.5951 -7118.3594 4086.0579)">
	<stop  offset="0" style="stop-color:#FFFFFF"/>
	<stop  offset="0.1707" style="stop-color:#FEF5D1"/>
	<stop  offset="0.5551" style="stop-color:#FDDD5D"/>
	<stop  offset="0.8525" style="stop-color:#FCC900"/>
</linearGradient>
<circle class="st7" cx="375.8" cy="167.5" r="71.5"/>
<linearGradient id="SVGID_2_" gradientUnits="userSpaceOnUse" x1="309.374" y1="233.8926" x2="369.422" y2="173.8446">
	<stop  offset="0" style="stop-color:#CFA500"/>
	<stop  offset="0.244" style="stop-color:#DEB100"/>
	<stop  offset="0.7051" style="stop-color:#F4C200"/>
	<stop  offset="1" style="stop-color:#FCC900"/>
</linearGradient>
<path class="st8" d="M401.6,196c-39.5,0-71.5-32-71.5-71.5c0-4.4,0.4-8.8,1.2-13c-16.4,13.1-26.9,33.3-26.9,55.9
	c0,39.5,32,71.5,71.5,71.5c35.1,0,64.2-25.2,70.3-58.5C433.9,190.2,418.4,196,401.6,196z"/>
<linearGradient id="SVGID_3_" gradientUnits="userSpaceOnUse" x1="64.8032" y1="629.4047" x2="418.7744" y2="315.3861">
	<stop  offset="0" style="stop-color:#CFA500"/>
	<stop  offset="1" style="stop-color:#FCC900"/>
</linearGradient>
<path class="st9" d="M515.5,236.9c-21.9-0.3-42,7.4-57.6,20.4c-24.6,20.6-55.6,31.8-87.7,31.8c-16,0-31.8-2.8-46.7-8.2
	c-12-4.4-23.4-10.4-33.8-17.9c-3.5-3.2-7.2-6.1-11.1-8.7c-15-11.2-33.6-17.7-53.8-17.4c-13.6,0.2-26.4,3.4-37.8,9.1
	c-34.1,14.8-57.9,48.7-57.9,88.2c0,30.3,14.1,57.4,36,75c22.6,18.1,53.8,21.1,79.8,8.3h0l-19.7-30.6l134.5-4.3l0.1,0.2l-85.5,103.9
	l-12.2-34.3l-1.1,0.6c-32.5,16-53.8,48.7-54.5,84.9c0,0.9,0,1.7,0,2.6c0,60.7,49.2,110,110,110c34.4,0,65.1-15.8,85.3-40.5
	c11.2-12,19-27.1,22.2-43.6c0.3-1.6,0.6-3.2,0.9-4.8l5-26.5c11.4-60.5,54.8-110,113.3-129.2h0c34.6-11.3,58.6-43.1,59.2-79.5
	c0-0.5,0-1,0-1.5C602.4,276.8,563.6,237.5,515.5,236.9z"/>
<linearGradient id="SVGID_4_" gradientUnits="userSpaceOnUse" x1="129.1739" y1="319.6672" x2="418.3398" y2="319.6672">
	<stop  offset="0.5189" style="stop-color:#FCC900"/>
	<stop  offset="1" style="stop-color:#CFA500"/>
</linearGradient>
<path class="st10" d="M418.3,280.4c-12.7,11.1-27.5,19.9-43.6,25.8c-15.1,5.5-30.9,8.2-46.7,8.1c-12.7,0-25.5-1.8-37.9-5.4
	c-4.3-1.8-8.8-3.3-13.4-4.4c-17.9-5.4-37.6-5.2-56.5,1.9c-12.7,4.8-23.7,12.2-32.5,21.4c-20.3,19.1-31.5,46.5-30.1,74.7
	c-17.6-17.4-28.5-41.6-28.5-68.3c0-39.5,23.8-73.4,57.9-88.2c11.4-5.7,24.2-8.9,37.8-9.1c20.2-0.3,38.8,6.3,53.8,17.4
	c3.9,2.6,7.6,5.5,11.1,8.7c10.4,7.6,21.8,13.6,33.8,17.9c14.8,5.4,30.6,8.2,46.7,8.2C386.8,289.2,403.1,286.2,418.3,280.4z"/>
<g>
	<linearGradient id="SVGID_5_" gradientUnits="userSpaceOnUse" x1="211.3642" y1="536.8155" x2="506.2285" y2="536.8155">
		<stop  offset="0.3189" style="stop-color:#FCC900"/>
		<stop  offset="1" style="stop-color:#CFA500"/>
	</linearGradient>
	<path class="st11" d="M506.2,423.2c-39.5,24.7-67.6,65-76.4,111.9l-5,26.5c-0.3,1.6-0.6,3.2-0.9,4.8c-3.2,16.5-11,31.6-22.2,43.6
		c-20.2,24.7-50.9,40.5-85.3,40.5c-49.4,0-91.3-32.6-105.1-77.5c5.9,3.3,12.1,6.1,18.7,8.3c32.6,11,66.7,5.9,93.8-11
		c14.5-7.8,26.7-19.6,35-34.1c0.8-1.4,1.6-2.8,2.4-4.2l13.2-23.5C401.8,459.8,451.3,428.2,506.2,423.2z"/>
</g>
<g>
	<path class="st12" d="M658.8,401c0-9.5,1.7-18.9,5-28.4c3.3-9.4,8.2-17.8,14.6-25.2c6.4-7.4,14.2-13.5,23.5-18.1
		c9.3-4.7,19.8-7,31.7-7c14.1,0,26.1,3.2,36,9.7c9.9,6.5,17.4,14.7,22.2,24.8l-9.3,5.3c-2.8-5.5-6.1-10.1-9.9-13.8
		c-3.8-3.7-7.9-6.7-12.2-9c-4.4-2.3-8.9-4-13.7-5c-4.7-1-9.4-1.6-14-1.6c-10.1,0-19,2-26.7,6.1c-7.7,4.1-14.2,9.4-19.6,15.9
		c-5.3,6.5-9.4,13.9-12.1,22.1c-2.7,8.2-4.1,16.5-4.1,24.8c0,9.3,1.6,18.2,4.9,26.7c3.3,8.5,7.7,15.9,13.3,22.4
		c5.6,6.5,12.3,11.6,20,15.5c7.7,3.9,16,5.8,24.9,5.8c4.7,0,9.6-0.6,14.7-1.8c5-1.2,9.9-3,14.5-5.6c4.6-2.5,8.9-5.7,12.9-9.7
		c4-3.9,7.3-8.6,10-13.9l9.8,4.7c-2.7,5.9-6.3,11.2-10.9,15.8c-4.6,4.6-9.7,8.5-15.3,11.6c-5.6,3.1-11.6,5.5-17.9,7
		c-6.3,1.6-12.5,2.3-18.6,2.3c-10.8,0-20.7-2.4-29.7-7.1c-9-4.7-16.7-10.9-23.2-18.6c-6.5-7.6-11.6-16.3-15.2-26
		C660.6,421,658.8,411.1,658.8,401z"/>
	<path class="st12" d="M823.2,481.1V323.1h11.3v147.7h94.3v10.2H823.2z"/>
	<path class="st12" d="M952.5,481.1V323.1h11.3v157.9H952.5z"/>
	<path class="st12" d="M994.3,401c0-9.5,1.7-18.9,5-28.4c3.3-9.4,8.2-17.8,14.6-25.2c6.4-7.4,14.2-13.5,23.5-18.1
		c9.3-4.7,19.8-7,31.7-7c14.1,0,26.1,3.2,36,9.7c9.9,6.5,17.4,14.7,22.2,24.8l-9.3,5.3c-2.8-5.5-6.1-10.1-9.9-13.8
		c-3.8-3.7-7.9-6.7-12.2-9c-4.4-2.3-8.9-4-13.7-5c-4.7-1-9.4-1.6-14-1.6c-10.1,0-19,2-26.7,6.1c-7.7,4.1-14.2,9.4-19.6,15.9
		c-5.3,6.5-9.4,13.9-12.1,22.1c-2.7,8.2-4.1,16.5-4.1,24.8c0,9.3,1.6,18.2,4.9,26.7c3.3,8.5,7.7,15.9,13.3,22.4
		c5.6,6.5,12.3,11.6,20,15.5c7.7,3.9,16,5.8,24.9,5.8c4.7,0,9.6-0.6,14.7-1.8c5-1.2,9.9-3,14.5-5.6c4.6-2.5,8.9-5.7,12.9-9.7
		c4-3.9,7.3-8.6,10-13.9l9.8,4.7c-2.7,5.9-6.3,11.2-10.9,15.8c-4.6,4.6-9.7,8.5-15.3,11.6c-5.6,3.1-11.6,5.5-17.9,7
		c-6.3,1.6-12.5,2.3-18.6,2.3c-10.8,0-20.7-2.4-29.7-7.1c-9-4.7-16.7-10.9-23.2-18.6c-6.5-7.6-11.6-16.3-15.2-26
		C996.1,421,994.3,411.1,994.3,401z"/>
	<path class="st12" d="M1158.7,481.1V323.1h11.3V419l92.1-95.9h13.1l-65.6,69.2l69,88.8h-12.9l-63.4-81.9l-32.3,33.1v48.7H1158.7z"
		/>
	<path class="st12" d="M1426,333.3h-57.8v147.7h-11.3V333.3H1299v-10.2h127V333.3z"/>
	<path class="st12" d="M1505.4,482.2c-11,0-21-2.3-30-6.9c-9-4.6-16.8-10.6-23.4-18c-6.5-7.4-11.6-15.9-15.1-25.6
		c-3.6-9.6-5.3-19.5-5.3-29.6c0-10.5,1.9-20.6,5.7-30.3c3.8-9.6,9-18.2,15.6-25.6c6.6-7.4,14.4-13.3,23.5-17.7
		c9-4.4,18.8-6.6,29.4-6.6c11,0,21,2.3,30.1,7c9.1,4.7,16.9,10.8,23.4,18.4c6.5,7.6,11.5,16.1,15,25.7s5.3,19.2,5.3,29
		c0,10.7-1.9,20.8-5.7,30.5c-3.8,9.6-9,18.1-15.6,25.5c-6.6,7.3-14.4,13.2-23.5,17.6C1525.7,480,1515.9,482.2,1505.4,482.2z
		 M1442.9,402.1c0,9,1.5,17.8,4.6,26.1c3,8.4,7.3,15.8,12.9,22.2c5.6,6.5,12.2,11.6,19.9,15.5c7.7,3.9,16.2,5.8,25.4,5.8
		c9.5,0,18.1-2,25.7-6c7.6-4,14.2-9.3,19.6-15.9c5.4-6.6,9.6-14,12.6-22.4c3-8.3,4.4-16.8,4.4-25.4c0-9-1.6-17.8-4.7-26.1
		c-3.1-8.4-7.5-15.8-13-22.2c-5.6-6.5-12.1-11.6-19.7-15.5c-7.6-3.9-15.9-5.8-24.9-5.8c-9.5,0-18.1,2-25.8,6
		c-7.7,4-14.3,9.3-19.8,15.9c-5.5,6.6-9.7,14.1-12.7,22.4C1444.4,385,1442.9,393.5,1442.9,402.1z"/>
	<path class="st4" d="M1732.3,360.9h-45.4v120.1h-43.4V360.9h-45.6v-37.8h134.4V360.9z"/>
	<path class="st4" d="M1894.6,323.1v157.9h-43.4v-61.8h-52.9v61.8h-43.4V323.1h43.4v58.3h52.9v-58.3H1894.6z"/>
	<path class="st4" d="M2039,443.2v37.8h-112.6V323.1H2037v37.8h-67.2v22.2h57.4v35.1h-57.4v24.9H2039z"/>
	<path class="st4" d="M2066.8,481.1V323.1h72.5c7.7,0,14.8,1.6,21.4,4.8c6.5,3.2,12.1,7.3,16.8,12.5c4.7,5.1,8.3,11,11,17.6
		c2.7,6.6,4,13.2,4,19.9c0,9.2-2,17.8-6,25.7c-4,7.9-9.6,14.4-16.7,19.5l33.4,58.1h-48.9l-27.8-48.5h-16.2v48.5H2066.8z
		 M2110.1,394.7h27.4c2.7,0,5.2-1.5,7.5-4.4c2.3-3,3.4-7.1,3.4-12.5c0-5.5-1.3-9.7-4-12.6c-2.7-2.9-5.3-4.3-8-4.3h-26.2V394.7z"/>
	<path class="st4" d="M2266.1,323.1h39.6l54.7,157.9h-44l-9.6-30.9h-42l-9.3,30.9h-44.3L2266.1,323.1z M2299.9,421.2l-14-48.9
		l-14.7,48.9H2299.9z"/>
	<path class="st4" d="M2379,481.1V323.1h68.1c7.7,0,14.8,1.6,21.4,4.8c6.5,3.2,12.1,7.3,16.8,12.5c4.7,5.1,8.3,11,11,17.6
		c2.7,6.6,4,13.2,4,19.9c0,7-1.3,13.8-3.8,20.4c-2.5,6.6-6,12.5-10.6,17.6c-4.5,5.1-10,9.2-16.5,12.2c-6.5,3-13.5,4.6-21.2,4.6
		h-25.8v48.5H2379z M2422.3,394.7h22.9c2.7,0,5.2-1.2,7.5-3.7c2.3-2.4,3.4-6.9,3.4-13.2c0-6.5-1.3-11-4-13.3c-2.7-2.4-5.3-3.6-8-3.6
		h-21.8V394.7z"/>
	<path class="st4" d="M2549.1,323.1l28.3,68.3l28.9-68.3h47.2l-54.5,105.7v52.3h-43.2v-52.7l-53.6-105.2H2549.1z"/>
</g>
<linearGradient id="SVGID_6_" gradientUnits="userSpaceOnUse" x1="-8957.3438" y1="-2161.7605" x2="-8798.5049" y2="-2195.9138" gradientTransform="matrix(-0.8855 0.4647 -0.4647 -0.8855 -8333.7764 2495.7725)">
	<stop  offset="0" style="stop-color:#FFFFFF"/>
	<stop  offset="0.8723" style="stop-color:#FFFFFF;stop-opacity:0"/>
</linearGradient>
<circle class="st13" cx="515.4" cy="320" r="59.7"/>
</svg>
